<svg width="25" height="25" viewBox="0 0 25 25" fill="none" xmlns="http://www.w3.org/2000/svg">
<path d="M22.1167 11.7665L22.1162 11.7834C22.0721 12.912 21.1304 13.7915 20.0111 13.7472C18.9469 13.7056 18.1069 12.8345 18.0653 11.7788L18.0642 11.7623C18.0226 10.6328 18.896 9.68332 20.0155 9.64114C21.1352 9.59934 22.0755 10.4807 22.1171 11.6105C22.119 11.6613 22.119 11.7167 22.1167 11.7665Z" fill="#353945"/>
<path d="M20.2503 17.3147L20.2412 17.3276C19.6393 18.1524 18.4903 18.3284 17.6727 17.7216C16.8991 17.1468 16.7052 16.0683 17.1985 15.2563L17.207 15.2434C17.7404 14.3718 18.8715 14.1018 19.735 14.6387C20.5988 15.1767 20.8669 16.3189 20.3335 17.1903C20.3086 17.2315 20.2792 17.2756 20.2503 17.3147Z" fill="#353945"/>
<path d="M15.7174 20.7976L15.7029 20.8028C14.8481 21.1132 13.9053 20.6649 13.5979 19.8025C13.3066 18.9851 13.6961 18.0859 14.4639 17.7302L14.4782 17.7231C15.3052 17.3435 16.2813 17.711 16.6583 18.5462C17.0356 19.381 16.6706 20.3658 15.8433 20.7468C15.8029 20.765 15.7584 20.7824 15.7174 20.7976Z" fill="#353945"/>
<path d="M10.1453 21.1255L10.1295 21.1215C9.35053 20.9257 8.8759 20.1287 9.07008 19.3429C9.25439 18.5963 9.98096 18.1275 10.7206 18.2502L10.7364 18.2527C11.5291 18.3867 12.0641 19.1428 11.9321 19.9427C11.7997 20.7418 11.0499 21.2825 10.2574 21.1489C10.2205 21.143 10.181 21.1341 10.1453 21.1255Z" fill="#353945"/>
<path d="M5.43676 18.3137L5.42631 18.3017C4.95966 17.7784 5.00203 16.9727 5.52131 16.5011C6.01266 16.0551 6.75937 16.0739 7.23285 16.5216L7.24425 16.5325C7.75194 17.0157 7.77512 17.8229 7.29612 18.3358C6.81713 18.8481 6.01722 18.8721 5.50915 18.3887C5.48464 18.3651 5.45899 18.3383 5.43676 18.3137Z" fill="#353945"/>
<path d="M3.13161 13.4311L3.12952 13.4148C3.04687 12.8231 3.45556 12.2762 4.0421 12.1928C4.59767 12.1137 5.11486 12.4845 5.2376 13.0263L5.24121 13.0415C5.37117 13.6251 5.00826 14.204 4.42971 14.3363C3.85191 14.4674 3.27753 14.1008 3.14738 13.5173C3.14111 13.4892 3.1356 13.4589 3.13161 13.4311Z" fill="#353945"/>
<path d="M3.90786 8.18994L3.91527 8.17575C4.12713 7.73342 4.65457 7.54858 5.09272 7.76275C5.50845 7.9658 5.69294 8.45818 5.53011 8.88518L5.52441 8.89994C5.3477 9.35819 4.83717 9.5852 4.38306 9.40766C3.92895 9.22972 3.70361 8.71415 3.87974 8.2559C3.88829 8.23385 3.89817 8.21103 3.90786 8.18994Z" fill="#353945"/>
<path d="M7.37005 4.36541L7.38316 4.35774C7.71205 4.16351 8.13519 4.27549 8.32747 4.60757C8.50987 4.92202 8.41791 5.32313 8.12778 5.52944L8.11505 5.53826C7.80287 5.75933 7.37176 5.68302 7.15306 5.36761C6.93399 5.0524 7.0098 4.61735 7.32217 4.39647C7.33737 4.38593 7.35409 4.375 7.37005 4.36541Z" fill="#353945"/>
<path d="M12.2545 3.17015L12.2709 3.17111C12.5464 3.1876 12.756 3.42669 12.7396 3.70432C12.7238 3.96834 12.5067 4.17293 12.2488 4.17791L12.2325 4.1781C11.9564 4.1827 11.729 3.96048 11.7244 3.68208C11.7199 3.4033 11.9401 3.17379 12.2162 3.16919C12.2287 3.16938 12.2422 3.16957 12.2545 3.17015Z" fill="#353945"/>
<path d="M16.8657 4.8908L16.8776 4.90019C17.0129 5.00507 17.0382 5.20045 16.9343 5.33677C16.8356 5.46581 16.6559 5.49496 16.5218 5.40848L16.5096 5.39985C16.3658 5.3061 16.3247 5.11321 16.4176 4.96845C16.5104 4.82388 16.7019 4.78227 16.8451 4.87642C16.8514 4.88063 16.8588 4.886 16.8657 4.8908Z" fill="#353945"/>
<path d="M19.6731 8.82705L19.6779 8.84201C19.698 8.90394 19.665 8.97124 19.604 8.99195C19.5456 9.01189 19.482 8.98217 19.4584 8.92618L19.4525 8.91238C19.4267 8.85179 19.4544 8.782 19.5145 8.75573C19.574 8.72965 19.6437 8.75765 19.669 8.81823C19.6709 8.82111 19.672 8.82399 19.6731 8.82705Z" fill="#353945"/>
</svg>
