<svg xmlns="http://www.w3.org/2000/svg" data-name="Layer 1" viewBox="0 0 168 168" id="ticket"><path fill="#2d4356" d="M66.80471 33.27864a3 3 0 1 0-3-3A3.00344 3.00344 0 0 0 66.80471 33.27864zm0-4.5a1.5 1.5 0 1 1-1.5 1.5A1.50148 1.50148 0 0 1 66.80471 28.77864zM159.27585 57.78841a2 2 0 1 0 2 2A2.00229 2.00229 0 0 0 159.27585 57.78841zm0 3a1 1 0 1 1 1-1A1.001 1.001 0 0 1 159.27585 60.78841zM42.98 4.21159a2 2 0 1 0 2 2A2.00229 2.00229 0 0 0 42.98 4.21159zm0 3a1 1 0 1 1 1-1A1.001 1.001 0 0 1 42.98 7.21159zM110.97559 6.21159a2 2 0 1 0 2 2A2.00229 2.00229 0 0 0 110.97559 6.21159zm0 3a1 1 0 1 1 1-1A1.001 1.001 0 0 1 110.97559 9.21159zM17.30471 25.78841a2 2 0 1 0-2 2A2.00229 2.00229 0 0 0 17.30471 25.78841zm-3 0a1 1 0 1 1 1 1A1.001 1.001 0 0 1 14.30471 25.78841z"></path><polygon fill="#0bceb2" points="10.888 66.8 12.375 64.844 11.436 64.312 10.481 66.502 10.45 66.502 9.48 64.328 8.525 64.875 9.996 66.784 9.996 66.816 7.695 66.518 7.695 67.582 10.011 67.285 10.011 67.316 8.525 69.225 9.416 69.788 10.434 67.582 10.465 67.582 11.404 69.772 12.39 69.209 10.888 67.332 10.888 67.3 13.25 67.582 13.25 66.518 10.888 66.831 10.888 66.8"></polygon><polygon fill="#0bceb2" points="96.804 42.448 95.948 43.547 96.462 43.871 97.048 42.601 97.066 42.601 97.606 43.862 98.174 43.538 97.309 42.457 97.309 42.439 98.669 42.601 98.669 41.988 97.309 42.168 97.309 42.15 98.165 41.024 97.625 40.718 97.075 41.979 97.057 41.979 96.499 40.727 95.948 41.042 96.796 42.142 96.796 42.16 95.471 41.988 95.471 42.601 96.804 42.43 96.804 42.448"></polygon><polygon fill="#0bceb2" points="164.724 16.367 164.724 15.324 162.407 15.631 162.407 15.6 163.866 13.682 162.945 13.16 162.009 15.308 161.977 15.308 161.027 13.175 160.089 13.712 161.533 15.585 161.533 15.616 159.276 15.324 159.276 16.367 161.548 16.076 161.548 16.107 160.089 17.979 160.964 18.532 161.963 16.367 161.992 16.367 162.913 18.516 163.881 17.964 162.407 16.122 162.407 16.091 164.724 16.367"></polygon><polygon fill="#0bceb2" points="128.848 44.399 130.106 42.745 129.312 42.295 128.504 44.148 128.477 44.148 127.657 42.308 126.849 42.771 128.094 44.386 128.094 44.413 126.147 44.161 126.147 45.061 128.107 44.81 128.107 44.836 126.849 46.451 127.603 46.928 128.464 45.061 128.49 45.061 129.285 46.915 130.119 46.438 128.848 44.849 128.848 44.823 130.847 45.061 130.847 44.161 128.848 44.426 128.848 44.399"></polygon><circle cx="2" cy="147.788" r="2" fill="#2d4356"></circle><path fill="#2d4356" d="M11 145.78841H8a2 2 0 0 0 0 4h3a2 2 0 0 0 0-4zM160 145.78841h-3a2 2 0 0 0 0 4h3a2 2 0 0 0 0-4z"></path><circle cx="166" cy="147.788" r="2" fill="#2d4356"></circle><path fill="#0bceb2" d="M118.15387 153.78841h-8.30774a2.00641 2.00641 0 0 0 0 4h8.30774a2.00641 2.00641 0 0 0 0-4zM58.15387 153.78841H49.84613a2.00641 2.00641 0 0 0 0 4h8.30774a2.00641 2.00641 0 0 0 0-4zM104 153.78841H64a2 2 0 0 0 0 4H79.94v2H72a2 2 0 0 0 0 4H97a2 2 0 0 0 0-4H88.06v-2H104a2 2 0 0 0 0-4zM78.97607 79.17268l2.83014-2.82849L56.54852 51.10188a4.00392 4.00392 0 0 0-5.66022 0L35.32269 66.658a3.99825 3.99825 0 0 0 0 5.65674L60.58038 97.55721l2.83014-2.82837L38.15283 69.4864 53.71844 53.93025z"></path><path fill="#2d4356" d="M54.21265,103.921l2.83014-2.82837L24.34949,68.419l4.10809-1.96313,2.49933-4.9126,5.06946-2.42261,2.49884-4.91162,5.069-2.42151,2.49988-4.9126,5.07538-2.42932,1.95526-3.83643L85.34381,72.80867l2.83008-2.82837L55.13342,36.95992a3.99108,3.99108,0,0,0-2.83008-1.17151c-1.02429,0-2.19348,1.80774-2.19348,1.80774l-1.98608,3.89807-5.07642,2.42932-2.49988,4.91272-5.06891,2.42139-2.49884,4.91174-5.0694,2.42249-2.49945,4.9126-4.04517,1.93262S20,67.01131,20,68.0721a3.99891,3.99891,0,0,0,1.17218,2.82849Z"></path><path fill="#0bceb2" d="M93.586 123.72481a3.99088 3.99088 0 0 0 2.83008-1.17151l36.26068-36.23877a3.9981 3.9981 0 0 0 0-5.65674L117.11127 65.10164a4.00429 4.00429 0 0 0-5.66028 0L75.19037 101.34041a3.9981 3.9981 0 0 0 0 5.65674L90.75586 122.5533A3.99133 3.99133 0 0 0 93.586 123.72481zM114.28107 67.93l15.56561 15.55615L93.586 119.72493 78.02045 104.16878zM71.42737 108.54036a2.00037 2.00037 0 0 0-2.82977 2.82813l2.54053 2.53906a2.00039 2.00039 0 0 0 2.82983-2.82812zM86.67175 123.77449a2.00039 2.00039 0 0 0-2.82983 2.82813l2.54059 2.53906a2.00037 2.00037 0 0 0 2.82977-2.82812z"></path><path fill="#2d4356" d="M80.17523,122.11043a1.99988,1.99988,0,0,0,1.41492-3.41394l-2.54059-2.53894a2.00033,2.00033,0,1,0-2.82977,2.828l2.54053,2.53906A1.9944,1.9944,0,0,0,80.17523,122.11043Z"></path><path fill="#2d4356" d="M150.72131,145.78841h-64.819c12.21185-12.20447,60.90918-60.87231,60.925-60.88806a4.04905,4.04905,0,0,0,1.124-2.36755,3.052,3.052,0,0,0-.56421-2.54419,2.06884,2.06884,0,0,0-.798-.507L142.55634,77.492l-2.158-4.37012a1.998,1.998,0,0,0-.90973-.9082l-4.36438-2.15027-2.15167-4.36218a2.00132,2.00132,0,0,0-.91016-.90918l-4.363-2.14844-2.15167-4.3623a1.99851,1.99851,0,0,0-.91016-.91016l-4.36444-2.14941s-1.98145-4.01709-1.98492-4.02417a2.88869,2.88869,0,0,0-.77008-1.03,3.01,3.01,0,0,0-2.168-.33545,4.173,4.173,0,0,0-2.12067.80725,3.82113,3.82113,0,0,0-.3634.32043c-.00043.00024-63.66785,63.62915-63.67725,63.63867a4.36633,4.36633,0,0,0-1.16083,2.81567,3.25581,3.25581,0,0,0,.21942,1.511,2.1438,2.1438,0,0,0,1.17944,1.092l4.03284,1.98987,2.158,4.37a1.998,1.998,0,0,0,.90973.9082l4.36438,2.15039,2.15167,4.3623a2.00116,2.00116,0,0,0,.91022.90918l4.36292,2.14929,2.15167,4.36121a2.0058,2.0058,0,0,0,.91022.90918l4.36438,2.15039.74542,1.51123H17.27869a2.017,2.017,0,1,0,0,4H150.72131a2.017,2.017,0,1,0,0-4ZM73.75787,138.8398l-2.15167-4.36218a2.00116,2.00116,0,0,0-.91022-.90918L66.33307,131.419l-2.15167-4.36133a2.0058,2.0058,0,0,0-.91022-.90918l-4.36487-2.15137-2.158-4.369a2.00078,2.00078,0,0,0-.90875-.90723l-3.42493-1.68958,10.92511-10.91846.17676.17651a2.00033,2.00033,0,1,0,2.82977-2.828l-.17676-.17664L115.299,54.18489l1.68457,3.41479a2.00116,2.00116,0,0,0,.91022.90918l4.36444,2.14941,2.15161,4.3623a1.99864,1.99864,0,0,0,.91022.91016L129.683,68.08l2.15167,4.36121a2.0058,2.0058,0,0,0,.91022.90918l4.36487,2.15137,2.158,4.36914a2.00078,2.00078,0,0,0,.90875.90723l3.42474,1.68945L94.4707,131.56844l-.17676-.17676a2.00074,2.00074,0,0,0-2.83081,2.82813l.17731.17725L80.717,145.3138l-1.68451-3.41455a2.0058,2.0058,0,0,0-.91022-.90918Z"></path></svg>