<svg width="25" height="25" viewBox="0 0 25 25" fill="none" xmlns="http://www.w3.org/2000/svg">
<path fill-rule="evenodd" clip-rule="evenodd" d="M18.6189 4.16919H6.6189C5.51433 4.16919 4.6189 5.06462 4.6189 6.16919V18.1692C4.6189 19.2738 5.51433 20.1692 6.6189 20.1692H18.6189C19.7235 20.1692 20.6189 19.2738 20.6189 18.1692V6.16919C20.6189 5.06462 19.7235 4.16919 18.6189 4.16919ZM6.6189 2.16919C4.40976 2.16919 2.6189 3.96005 2.6189 6.16919V18.1692C2.6189 20.3783 4.40976 22.1692 6.6189 22.1692H18.6189C20.828 22.1692 22.6189 20.3783 22.6189 18.1692V6.16919C22.6189 3.96005 20.828 2.16919 18.6189 2.16919H6.6189Z" fill="#777E91"/>
<path d="M7.6189 8.16919C8.17118 8.16919 8.6189 7.72147 8.6189 7.16919C8.6189 6.61691 8.17118 6.16919 7.6189 6.16919C7.06662 6.16919 6.6189 6.61691 6.6189 7.16919C6.6189 7.72147 7.06662 8.16919 7.6189 8.16919Z" fill="#777E91"/>
<path d="M7.6189 10.1692C7.06662 10.1692 6.6189 10.6169 6.6189 11.1692V17.1692C6.6189 17.7215 7.06662 18.1692 7.6189 18.1692C8.17118 18.1692 8.6189 17.7215 8.6189 17.1692V11.1692C8.6189 10.6169 8.17118 10.1692 7.6189 10.1692Z" fill="#777E91"/>
<path d="M14.6189 12.1692C13.5143 12.1692 12.6189 13.0646 12.6189 14.1692V17.1692C12.6189 17.7215 12.1712 18.1692 11.6189 18.1692C11.0666 18.1692 10.6189 17.7215 10.6189 17.1692V11.1692C10.6189 10.6169 11.0666 10.1692 11.6189 10.1692C12.0243 10.1692 12.3733 10.4104 12.5303 10.7571C13.1382 10.3842 13.8535 10.1692 14.6189 10.1692C16.828 10.1692 18.6189 11.9601 18.6189 14.1692V17.1692C18.6189 17.7215 18.1712 18.1692 17.6189 18.1692C17.0666 18.1692 16.6189 17.7215 16.6189 17.1692V14.1692C16.6189 13.0646 15.7235 12.1692 14.6189 12.1692Z" fill="#777E91"/>
</svg>
