<svg width="44" height="44" viewBox="0 0 44 44" fill="none" xmlns="http://www.w3.org/2000/svg">
<path d="M36.25 3H7.75C5.13037 3 3 5.13037 3 7.75V36.25C3 38.8696 5.13037 41 7.75 41H36.25C38.8696 41 41 38.8696 41 36.25V7.75C41 5.13037 38.8696 3 36.25 3Z" fill="#0078D7"/>
<path fill-rule="evenodd" clip-rule="evenodd" d="M35.0625 22H29.125V17.25C29.125 15.939 30.189 16.0625 31.5 16.0625H33.875V10.125H29.125C27.2353 10.125 25.4231 10.8757 24.0869 12.2119C22.7507 13.5481 22 15.3603 22 17.25V22H17.25V27.9375H22V41H29.125V27.9375H32.6875L35.0625 22Z" fill="white"/>
</svg>
