<svg width="16" height="16" viewBox="0 0 16 16" fill="none" xmlns="http://www.w3.org/2000/svg">
<path d="M10.5994 8.53789C11.2891 7.99528 11.7924 7.25121 12.0395 6.40919C12.2866 5.56716 12.2651 4.66906 11.978 3.83983C11.6909 3.0106 11.1525 2.29147 10.4376 1.78249C9.7228 1.27351 8.86709 1 7.98957 1C7.11204 1 6.25633 1.27351 5.54149 1.78249C4.82665 2.29147 4.28822 3.0106 4.00112 3.83983C3.71401 4.66906 3.69251 5.56716 3.9396 6.40919C4.18669 7.25121 4.69008 7.99528 5.37974 8.53789C4.19799 9.01134 3.16687 9.79661 2.39631 10.81C1.62575 11.8234 1.14463 13.0269 1.00424 14.2922C0.994081 14.3845 1.00221 14.478 1.02818 14.5673C1.05414 14.6565 1.09743 14.7397 1.15556 14.8122C1.27298 14.9587 1.44375 15.0525 1.63032 15.073C1.81689 15.0935 2.00397 15.0391 2.1504 14.9217C2.29684 14.8043 2.39063 14.6335 2.41116 14.4469C2.56562 13.0718 3.22132 11.8018 4.25296 10.8795C5.2846 9.9573 6.61987 9.44748 8.00364 9.44748C9.38741 9.44748 10.7227 9.9573 11.7543 10.8795C12.786 11.8018 13.4416 13.0718 13.5961 14.4469C13.6152 14.6198 13.6977 14.7794 13.8276 14.895C13.9575 15.0107 14.1257 15.0741 14.2996 15.073H14.377C14.5614 15.0518 14.7299 14.9585 14.8458 14.8136C14.9618 14.6687 15.0158 14.4838 14.996 14.2992C14.8549 13.0303 14.3712 11.8237 13.5967 10.8088C12.8222 9.79385 11.7861 9.00883 10.5994 8.53789ZM7.98957 8.03843C7.43304 8.03843 6.88902 7.8734 6.42629 7.56422C5.96356 7.25503 5.6029 6.81557 5.38993 6.30141C5.17696 5.78725 5.12123 5.22148 5.22981 4.67566C5.33838 4.12983 5.60637 3.62845 5.99989 3.23493C6.39341 2.84141 6.89479 2.57342 7.44062 2.46485C7.98645 2.35627 8.55221 2.412 9.06637 2.62497C9.58053 2.83794 10.02 3.1986 10.3292 3.66133C10.6384 4.12406 10.8034 4.66808 10.8034 5.22461C10.8034 5.97088 10.5069 6.68659 9.97924 7.21428C9.45155 7.74198 8.73584 8.03843 7.98957 8.03843Z" fill="white"/>
</svg>
