<svg width="25" height="24" viewBox="0 0 25 24" fill="none" xmlns="http://www.w3.org/2000/svg">
<path fill-rule="evenodd" clip-rule="evenodd" d="M17.6163 17.0004H8.61618V10.5002C8.61618 8.00007 10.6162 6 13.1162 6C15.6162 6 17.6163 8.00007 17.6163 10.5002V17.0004ZM19.6182 16.0005V10.5003C19.6182 7.4302 17.4782 4.86011 14.6182 4.18008V3.50006C14.6182 2.6716 13.9466 2 13.1182 2C12.2897 2 11.6182 2.6716 11.6182 3.50006V4.18008C8.74816 4.86011 6.61816 7.4302 6.61816 10.5003V16.0005L4.61816 18.0006V19.0006H21.6182V18.0006L19.6182 16.0005ZM13.1181 22.0001C14.2227 22.0001 15.1181 21.1046 15.1181 20H11.1181C11.1181 21.1046 12.0135 22.0001 13.1181 22.0001Z" fill="#777E91"/>
</svg>
