<svg width="14" height="14" viewBox="0 0 14 14" fill="none" xmlns="http://www.w3.org/2000/svg">
<path fill-rule="evenodd" clip-rule="evenodd" d="M4.0968 5.20559V4.13834C4.0968 2.49893 5.41245 1.16675 7.03939 1.16675C8.66633 1.16675 9.98198 2.49893 9.98198 4.13834V5.20559H10.8149C11.2883 5.20559 11.6645 5.59402 11.6645 6.06425V11.9747C11.6645 12.445 11.2883 12.8334 10.8149 12.8334H3.18168C2.70827 12.8334 2.33203 12.445 2.33203 11.9747V6.06425C2.33203 5.59402 2.70827 5.20559 3.18168 5.20559H4.0968ZM3.39492 6.26614V11.7728H10.601V6.26614H3.39492ZM8.91723 5.18928V4.13838C8.91723 3.08121 8.074 2.22739 7.03783 2.22739C6.00166 2.22739 5.15843 3.08121 5.15843 4.13838V5.18928H8.91723Z" fill="#3B71FE"/>
</svg>
