<svg width="22" height="22" viewBox="0 0 22 22" fill="none" xmlns="http://www.w3.org/2000/svg">
<path fill-rule="evenodd" clip-rule="evenodd" d="M22 22H17.1375V14.2659C17.1375 12.2419 16.3775 10.8597 14.7045 10.8597C13.4255 10.8597 12.714 11.7926 12.383 12.6913C12.2585 13.0136 12.278 13.4629 12.278 13.9123V22H7.461C7.461 22 7.523 8.30005 7.461 7.05485H12.278V9.40061C12.563 8.37486 14.102 6.91131 16.558 6.91131C19.6055 6.91131 22 9.0607 22 13.69V22ZM2.59 5.18541H2.5585C1.0065 5.18541 0 4.04304 0 2.59489C0 1.11869 1.03601 0 2.61951 0C4.20151 0 5.17449 1.11595 5.20499 2.5905C5.20499 4.03865 4.2015 5.18541 2.59 5.18541ZM0.554993 7.05485H4.84299V22H0.554993V7.05485Z" fill="white"/>
</svg>
