<svg width="14" height="14" viewBox="0 0 14 14" fill="none" xmlns="http://www.w3.org/2000/svg">
<path d="M7.44567 1.75191L6.63524 1.75001C4.78752 1.74567 3.1832 3.24695 3.17047 5.0663V8.26516C3.17047 8.70157 3.11488 9.12814 2.87677 9.49128L2.71818 9.73305C2.47736 10.1003 2.73632 10.5922 3.17047 10.5922H10.9235C11.3577 10.5922 11.6166 10.1003 11.3758 9.73305L11.2173 9.49128C10.9791 9.12814 10.9235 8.70157 10.9235 8.26516V5.0663C10.902 3.24686 9.29339 1.75624 7.44567 1.75191Z" stroke="#3B71FE" stroke-linecap="round" stroke-linejoin="round"/>
<path d="M8.70444 10.5922C8.70444 11.5078 7.96221 12.25 7.04656 12.25C6.13091 12.25 5.38867 11.5078 5.38867 10.5922" stroke="#3B71FE" stroke-linecap="round" stroke-linejoin="round"/>
</svg>
