<svg width="21" height="26" viewBox="0 0 21 26" fill="none" xmlns="http://www.w3.org/2000/svg">
<path d="M2.89371 15.2293L7.80925 15.0847L9.4019 11.6339C9.57236 11.2646 9.25468 10.861 8.85767 10.9496C7.53945 11.2437 5.68417 11.7305 4.64258 12.2513C3.64242 12.7514 2.89233 13.7829 2.46268 14.572C2.29188 14.8857 2.53669 15.2398 2.89371 15.2293Z" fill="white"/>
<path d="M18.9998 24.5434L14.7851 17.1676C14.4147 16.5194 13.4901 16.4897 13.0762 17.111C11.7824 19.053 9.98452 21.6987 9.14239 22.7513C8.07572 24.0847 6.92017 24.3069 6.47572 24.2513C5.25351 24.1958 2.47576 23.9847 1.14242 23.5847C-0.190909 23.1847 0.50252 22.3661 1.14242 22.0847C1.90622 21.7487 3.80909 21.1513 5.14242 20.7513C6.47576 20.3514 7.47576 18.8069 7.80909 18.0847L12.8091 8.58459C14.0869 5.97348 17.1091 0.784593 18.9758 0.917926C20.8424 1.05126 20.3091 3.08459 19.8091 4.08459L17.138 9.89825C17.0336 10.1253 17.0175 10.3815 17.0938 10.6194C18.0792 13.693 19.9637 19.5871 20.4758 21.2513C20.8996 22.6288 20.2989 23.887 19.7277 24.6244C19.5318 24.8773 19.1585 24.8211 18.9998 24.5434Z" fill="white"/>
</svg>
