<svg width="16" height="13" viewBox="0 0 16 13" fill="none" xmlns="http://www.w3.org/2000/svg">
<path d="M15.9332 6.175C14.3178 2.36438 11.2789 0 8 0C4.72114 0 1.6822 2.36438 0.0667645 6.175C0.0227292 6.27751 0 6.38815 0 6.5C0 6.61185 0.0227292 6.72249 0.0667645 6.825C1.6822 10.6356 4.72114 13 8 13C11.2789 13 14.3178 10.6356 15.9332 6.825C15.9773 6.72249 16 6.61185 16 6.5C16 6.38815 15.9773 6.27751 15.9332 6.175ZM8 11.375C5.46488 11.375 3.06572 9.51437 1.6822 6.5C3.06572 3.48563 5.46488 1.625 8 1.625C10.5351 1.625 12.9343 3.48563 14.3178 6.5C12.9343 9.51437 10.5351 11.375 8 11.375ZM8 3.25C7.36732 3.25 6.74885 3.44061 6.22279 3.79772C5.69674 4.15484 5.28673 4.66242 5.04461 5.25628C4.8025 5.85014 4.73915 6.50361 4.86258 7.13404C4.98601 7.76448 5.29067 8.34358 5.73805 8.7981C6.18542 9.25262 6.75541 9.56215 7.37593 9.68755C7.99645 9.81295 8.63964 9.74859 9.22416 9.50261C9.80868 9.25662 10.3083 8.84006 10.6598 8.3056C11.0113 7.77114 11.1989 7.14279 11.1989 6.5C11.1989 5.63805 10.8619 4.8114 10.262 4.2019C9.66205 3.59241 8.8484 3.25 8 3.25ZM8 8.125C7.68366 8.125 7.37442 8.0297 7.1114 7.85114C6.84837 7.67258 6.64337 7.41879 6.52231 7.12186C6.40125 6.82493 6.36958 6.4982 6.43129 6.18298C6.493 5.86776 6.64534 5.57821 6.86902 5.35095C7.09271 5.12369 7.3777 4.96892 7.68796 4.90622C7.99823 4.84352 8.31982 4.8757 8.61208 4.9987C8.90434 5.12169 9.15414 5.32997 9.32989 5.5972C9.50564 5.86443 9.59944 6.17861 9.59944 6.5C9.59944 6.93098 9.43093 7.3443 9.13098 7.64905C8.83102 7.95379 8.4242 8.125 8 8.125Z" fill="#B1B5C4"/>
</svg>
