<svg width="25" height="25" viewBox="0 0 25 25" fill="none" xmlns="http://www.w3.org/2000/svg">
<path fill-rule="evenodd" clip-rule="evenodd" d="M17.2358 17.085H8.23569V10.5848C8.23569 8.08467 10.2357 6.08459 12.7357 6.08459C15.2357 6.08459 17.2358 8.08467 17.2358 10.5848V17.085ZM19.2377 16.0851V10.5849C19.2377 7.51479 17.0977 4.9447 14.2377 4.26467V3.58465C14.2377 2.75619 13.5661 2.08459 12.7377 2.08459C11.9092 2.08459 11.2377 2.75619 11.2377 3.58465V4.26467C8.36767 4.9447 6.23767 7.51479 6.23767 10.5849V16.0851L4.23767 18.0852V19.0852H21.2377V18.0852L19.2377 16.0851ZM12.7376 22.0847C13.8422 22.0847 14.7376 21.1892 14.7376 20.0846H10.7376C10.7376 21.1892 11.6331 22.0847 12.7376 22.0847Z" fill="#777E91"/>
</svg>
