<svg width="25" height="25" viewBox="0 0 25 25" fill="none" xmlns="http://www.w3.org/2000/svg">
<path fill-rule="evenodd" clip-rule="evenodd" d="M13.1189 7.16919C13.1189 6.6169 12.6712 6.16919 12.1189 6.16919C11.5666 6.16919 11.1189 6.6169 11.1189 7.16919V11.1692H7.1189C6.56661 11.1692 6.1189 11.6169 6.1189 12.1692C6.1189 12.7215 6.56661 13.1692 7.1189 13.1692H11.1189V17.1692C11.1189 17.7215 11.5666 18.1692 12.1189 18.1692C12.6712 18.1692 13.1189 17.7215 13.1189 17.1692V13.1692H17.1189C17.6712 13.1692 18.1189 12.7215 18.1189 12.1692C18.1189 11.6169 17.6712 11.1692 17.1189 11.1692H13.1189V7.16919Z" fill="#3B71FE"/>
</svg>
