<svg width="25" height="25" viewBox="0 0 25 25" fill="none" xmlns="http://www.w3.org/2000/svg">
<path fill-rule="evenodd" clip-rule="evenodd" d="M16.6189 4.16919H8.6189C6.40976 4.16919 4.6189 5.96005 4.6189 8.16919V16.1692C4.6189 18.3783 6.40976 20.1692 8.6189 20.1692H16.6189C18.828 20.1692 20.6189 18.3783 20.6189 16.1692V8.16919C20.6189 5.96005 18.828 4.16919 16.6189 4.16919ZM8.6189 2.16919C5.30519 2.16919 2.6189 4.85548 2.6189 8.16919V16.1692C2.6189 19.4829 5.30519 22.1692 8.6189 22.1692H16.6189C19.9326 22.1692 22.6189 19.4829 22.6189 16.1692V8.16919C22.6189 4.85548 19.9326 2.16919 16.6189 2.16919H8.6189Z" fill="#777E91"/>
<path d="M17.6189 8.16919C18.1712 8.16919 18.6189 7.72147 18.6189 7.16919C18.6189 6.61691 18.1712 6.16919 17.6189 6.16919C17.0666 6.16919 16.6189 6.61691 16.6189 7.16919C16.6189 7.72147 17.0666 8.16919 17.6189 8.16919Z" fill="#777E91"/>
<path fill-rule="evenodd" clip-rule="evenodd" d="M17.6189 12.1692C17.6189 14.9306 15.3803 17.1692 12.6189 17.1692C9.85748 17.1692 7.6189 14.9306 7.6189 12.1692C7.6189 9.40777 9.85748 7.16919 12.6189 7.16919C15.3803 7.16919 17.6189 9.40777 17.6189 12.1692ZM15.6189 12.1692C15.6189 13.8261 14.2758 15.1692 12.6189 15.1692C10.962 15.1692 9.6189 13.8261 9.6189 12.1692C9.6189 10.5123 10.962 9.16919 12.6189 9.16919C14.2758 9.16919 15.6189 10.5123 15.6189 12.1692Z" fill="#777E91"/>
</svg>
