<svg width="25" height="25" viewBox="0 0 25 25" fill="none" xmlns="http://www.w3.org/2000/svg">
<path d="M13.6189 10.1692C13.6189 9.61691 14.0666 9.16919 14.6189 9.16919H15.6189C16.1712 9.16919 16.6189 8.72148 16.6189 8.16919C16.6189 7.61691 16.1712 7.16919 15.6189 7.16919H14.6189C12.962 7.16919 11.6189 8.51234 11.6189 10.1692V12.1692H10.6189C10.0666 12.1692 9.6189 12.6169 9.6189 13.1692C9.6189 13.7215 10.0666 14.1692 10.6189 14.1692H11.6189V20.1692C11.6189 20.7215 12.0666 21.1692 12.6189 21.1692C13.1712 21.1692 13.6189 20.7215 13.6189 20.1692V14.1692H15.6189C16.1712 14.1692 16.6189 13.7215 16.6189 13.1692C16.6189 12.6169 16.1712 12.1692 15.6189 12.1692H13.6189V10.1692Z" fill="#777E91"/>
<path fill-rule="evenodd" clip-rule="evenodd" d="M18.6189 4.16919H6.6189C5.51433 4.16919 4.6189 5.06462 4.6189 6.16919V18.1692C4.6189 19.2738 5.51433 20.1692 6.6189 20.1692H18.6189C19.7235 20.1692 20.6189 19.2738 20.6189 18.1692V6.16919C20.6189 5.06462 19.7235 4.16919 18.6189 4.16919ZM6.6189 2.16919C4.40976 2.16919 2.6189 3.96005 2.6189 6.16919V18.1692C2.6189 20.3783 4.40976 22.1692 6.6189 22.1692H18.6189C20.828 22.1692 22.6189 20.3783 22.6189 18.1692V6.16919C22.6189 3.96005 20.828 2.16919 18.6189 2.16919H6.6189Z" fill="#777E91"/>
</svg>
