<svg width="21" height="25" viewBox="0 0 21 25" fill="none" xmlns="http://www.w3.org/2000/svg">
<path d="M3.13126 14.483L8.04679 14.3385L9.63945 10.8877C9.80991 10.5184 9.49223 10.1148 9.09522 10.2034C7.777 10.4974 5.92172 10.9843 4.88013 11.5051C3.87996 12.0052 3.12988 13.0367 2.70023 13.8258C2.52943 14.1395 2.77424 14.4935 3.13126 14.483Z" fill="white"/>
<path d="M19.2379 23.7972L15.0231 16.4213C14.6527 15.7732 13.7281 15.7435 13.3142 16.3648C12.0205 18.3068 10.2226 20.9525 9.38042 22.0051C8.31376 23.3385 7.1582 23.5607 6.71376 23.5051C5.49155 23.4496 2.71379 23.2385 1.38046 22.8385C0.047128 22.4385 0.740557 21.6199 1.38046 21.3385C2.14426 21.0025 4.04713 20.4051 5.38046 20.0051C6.7138 19.6052 7.71379 18.0607 8.04713 17.3385L13.0471 7.83838C14.3249 5.22727 17.3471 0.0383771 19.2138 0.17171C21.0805 0.305044 20.5471 2.33838 20.0471 3.33838L17.376 9.15204C17.2717 9.37911 17.2556 9.63524 17.3319 9.8732C18.3173 12.9468 20.2017 18.8409 20.7138 20.505C21.1376 21.8826 20.5369 23.1408 19.9657 23.8782C19.7698 24.131 19.3966 24.0749 19.2379 23.7972Z" fill="white"/>
</svg>
