<svg width="23" height="19" viewBox="0 0 23 19" fill="none" xmlns="http://www.w3.org/2000/svg">
<path fill-rule="evenodd" clip-rule="evenodd" d="M2.73481 11.169C1.06928 11.1737 -0.00585127 13.0576 1.02022 14.4849C2.48965 16.5288 5.15428 18.1692 9.60283 18.1692C16.4968 18.1692 22.0306 12.5909 21.2559 6.00029L22.3908 3.74649C23.1779 2.18347 21.8102 0.405409 20.0844 0.748129L18.585 1.04588C18.1875 0.837619 17.776 0.680459 17.4245 0.566599C16.7392 0.344709 15.9098 0.169189 15.1421 0.169189C13.763 0.169189 12.5728 0.5205 11.6269 1.22512C10.6917 1.92183 10.165 2.83744 9.87596 3.67824C9.74272 4.0658 9.65399 4.45453 9.59706 4.82762C9.06199 4.66042 8.51642 4.43545 7.98229 4.16074C6.77051 3.53751 5.79061 2.74741 5.23784 2.0547C4.31044 0.892489 2.34508 0.978659 1.65541 2.4894C0.68338 4.61866 0.950019 7.14265 1.82375 9.18209C2.11661 9.86559 2.49756 10.5413 2.96296 11.1675C2.88329 11.1684 2.80707 11.1688 2.73481 11.169ZM9.60273 16.1692C5.71181 16.1692 3.69989 14.7699 2.65956 13.3229C2.61282 13.2579 2.65996 13.1692 2.7404 13.169C3.79874 13.166 5.97113 13.1163 7.40388 12.2837C7.47798 12.2406 7.46167 12.1321 7.3803 12.105C4.04046 10.99 2.14198 6.26778 3.48991 3.31509C3.52082 3.24739 3.61247 3.23846 3.65897 3.29673C5.19875 5.22637 8.56541 7.11639 11.4945 7.1681C11.5581 7.16919 11.6061 7.11189 11.5965 7.04952C11.4784 6.28972 11.0277 2.16919 15.142 2.16919C16.1244 2.16919 17.5862 2.64502 18.1246 3.13249C18.1495 3.15502 18.1832 3.16525 18.2163 3.15869L20.4793 2.70929C20.5615 2.69297 20.6266 2.77764 20.5892 2.85207L19.1855 5.63938C19.1758 5.65873 19.1727 5.68094 19.1765 5.70225C20.1595 11.1892 15.6335 16.1692 9.60273 16.1692Z" fill="#777E91"/>
</svg>
