<svg width="25" height="25" viewBox="0 0 25 25" fill="none" xmlns="http://www.w3.org/2000/svg">
<path fill-rule="evenodd" clip-rule="evenodd" d="M17.2359 17.085H8.23581V10.5848C8.23581 8.08467 10.2358 6.08459 12.7358 6.08459C15.2359 6.08459 17.2359 8.08467 17.2359 10.5848V17.085ZM19.2378 16.0851V10.5849C19.2378 7.51479 17.0978 4.9447 14.2378 4.26467V3.58465C14.2378 2.75619 13.5662 2.08459 12.7378 2.08459C11.9094 2.08459 11.2378 2.75619 11.2378 3.58465V4.26467C8.36779 4.9447 6.23779 7.51479 6.23779 10.5849V16.0851L4.23779 18.0852V19.0852H21.2378V18.0852L19.2378 16.0851ZM12.7377 22.0847C13.8423 22.0847 14.7377 21.1892 14.7377 20.0846H10.7378C10.7378 21.1892 11.6332 22.0847 12.7377 22.0847Z" fill="#777E91"/>
</svg>
