<svg width="17" height="17" viewBox="0 0 17 17" fill="none" xmlns="http://www.w3.org/2000/svg">
<path d="M7.59872 3.50375C7.89672 3.45807 8.19779 3.40136 8.49927 3.4018C11.2009 3.4018 13.7412 5.34733 15.2195 8.49927C14.9934 8.97894 14.738 9.44426 14.4548 9.89259C14.3649 10.0318 14.3177 10.1942 14.3189 10.3599C14.3208 10.5453 14.3833 10.725 14.4969 10.8715C14.6104 11.0181 14.7688 11.1235 14.9479 11.1716C15.1269 11.2198 15.3168 11.208 15.4886 11.1381C15.6603 11.0683 15.8045 10.9441 15.8991 10.7846C16.295 10.1627 16.6388 9.50913 16.9271 8.83061C16.9727 8.7246 16.9962 8.61042 16.9962 8.49503C16.9962 8.37963 16.9727 8.26545 16.9271 8.15944C15.211 4.17491 11.9826 1.70264 8.49927 1.70264C8.10054 1.70063 7.70244 1.73475 7.30986 1.80459C7.19829 1.82355 7.09155 1.86431 6.99574 1.92453C6.89992 1.98474 6.8169 2.06325 6.75142 2.15555C6.68594 2.24785 6.63928 2.35215 6.61411 2.46248C6.58894 2.57281 6.58574 2.68703 6.60471 2.79859C6.62368 2.91016 6.66443 3.0169 6.72465 3.11272C6.78487 3.20854 6.86337 3.29156 6.95567 3.35704C7.04798 3.42251 7.15227 3.46917 7.26261 3.49435C7.37294 3.51952 7.48715 3.52271 7.59872 3.50375ZM1.45626 0.249854C1.37704 0.170641 1.283 0.107805 1.17951 0.064935C1.07601 0.0220649 0.965081 0 0.853056 0C0.741031 0 0.630103 0.0220649 0.526606 0.064935C0.423108 0.107805 0.329068 0.170641 0.249854 0.249854C0.0898752 0.409833 0 0.626812 0 0.853056C0 1.0793 0.0898752 1.29628 0.249854 1.45626L2.88355 4.08146C1.68188 5.23819 0.725497 6.62509 0.0714425 8.15944C0.0246618 8.26663 0.000515504 8.38232 0.000515504 8.49927C0.000515504 8.61623 0.0246618 8.73192 0.0714425 8.83911C1.78759 12.8236 5.016 15.2959 8.49927 15.2959C10.0261 15.2854 11.5168 14.8308 12.7897 13.9876L15.5423 16.7487C15.6213 16.8283 15.7152 16.8915 15.8188 16.9347C15.9223 16.9778 16.0333 17 16.1455 17C16.2576 17 16.3687 16.9778 16.4722 16.9347C16.5758 16.8915 16.6697 16.8283 16.7487 16.7487C16.8283 16.6697 16.8915 16.5758 16.9347 16.4722C16.9778 16.3687 17 16.2576 17 16.1455C17 16.0333 16.9778 15.9223 16.9347 15.8188C16.8915 15.7152 16.8283 15.6213 16.7487 15.5423L1.45626 0.249854ZM6.85959 8.05749L8.94106 10.139C8.79747 10.1801 8.64864 10.2002 8.49927 10.1984C8.04863 10.1984 7.61644 10.0194 7.29779 9.70076C6.97913 9.38211 6.80011 8.94992 6.80011 8.49927C6.79838 8.34991 6.81841 8.20108 6.85959 8.05749ZM8.49927 13.5968C5.79761 13.5968 3.25737 11.6512 1.78759 8.49927C2.3365 7.28756 3.11555 6.19401 4.08146 5.27937L5.58522 6.80011C5.232 7.44477 5.09734 8.18658 5.20143 8.91426C5.30552 9.64193 5.64275 10.3162 6.16253 10.836C6.68231 11.3558 7.35662 11.693 8.08429 11.7971C8.81197 11.9012 9.55377 11.7665 10.1984 11.4133L11.5493 12.7472C10.6242 13.2917 9.57265 13.5846 8.49927 13.5968Z" fill="#B1B5C4"/>
</svg>
