<svg width="21" height="18" viewBox="0 0 21 18" fill="none" xmlns="http://www.w3.org/2000/svg">
<path d="M20.5714 2.13206C19.7976 2.49553 18.9792 2.7371 18.1414 2.84934C19.0243 2.28522 19.6844 1.39193 19.9966 0.338749C19.1701 0.866594 18.2659 1.23835 17.323 1.43795C16.7448 0.772651 15.994 0.310083 15.1684 0.110386C14.3428 -0.0893114 13.4804 -0.0168989 12.6935 0.318208C11.9066 0.653314 11.2315 1.23561 10.756 1.98939C10.2805 2.74318 10.0266 3.63357 10.0273 4.54481C10.0241 4.89253 10.0569 5.23956 10.1251 5.57946C8.44733 5.49088 6.80582 5.02199 5.30787 4.20345C3.80992 3.38491 2.48926 2.23514 1.43224 0.829306C0.889554 1.82833 0.721381 3.01271 0.962045 4.14072C1.20271 5.26872 1.83406 6.2553 2.72725 6.89908C2.05996 6.87966 1.40678 6.68781 0.822748 6.3397V6.38918C0.823846 7.43792 1.16043 8.45423 1.77585 9.26704C2.39128 10.0799 3.24795 10.6395 4.20168 10.8519C3.84087 10.9543 3.46902 11.0046 3.09591 11.0015C2.82799 11.0065 2.56034 10.9805 2.2976 10.9239C2.57017 11.8252 3.09548 12.6133 3.80121 13.1799C4.50695 13.7464 5.35841 14.0635 6.23839 14.0874C4.74559 15.3445 2.90456 16.0265 1.00948 16.0244C0.672092 16.0268 0.334908 16.0059 0 15.9619C1.9284 17.3 4.17552 18.0079 6.46961 17.9999C14.2301 17.9999 18.4731 11.0775 18.4731 5.07698C18.4731 4.87612 18.4666 4.68246 18.4576 4.48993C19.2895 3.84888 20.0058 3.04985 20.5714 2.13206Z" fill="white"/>
</svg>
