<svg xmlns="http://www.w3.org/2000/svg" width="1600.003" height="1600.003" fill-rule="evenodd" clip-rule="evenodd" image-rendering="optimizeQuality" shape-rendering="geometricPrecision" text-rendering="geometricPrecision" viewBox="0 0 16666.66 16666.66" id="crowdfunding-chart"><rect width="16666.66" height="16666.66" fill="none"></rect><polygon fill="#e5e6e5" fill-rule="nonzero" points="8654.11 14760.7 6426.96 14760.7 6610.05 12076 8471.12 12076"></polygon><path fill="#bec1c1" fill-rule="nonzero" d="M6807.31 14093.44c557.11,-184.87 1215.63,-317.65 1761.23,-587.59l-97.41 -1429.84 -1861.07 0 -145.24 2128.83c114.9,-36.97 229.44,-73.79 342.5,-111.39z"></path><path fill="#e5e6e5" fill-rule="nonzero" d="M8946.02 14330.88c-26.98-40.37-72.3-64.44-120.92-64.44l-2569.16 0c-48.48 0-93.8 24.07-120.92 64.44l-336.52 502.02c-64.83 96.8 4.5 226.72 120.92 226.72l3242.2 0c116.42 0 185.75-129.91 120.92-226.72l-336.52-502.02zM12993.78 12789.72l-10906.49 0c-346.15 0-626.68-280.68-626.68-626.79l0-6897.75c0-346.25 280.54-626.79 626.68-626.79l10906.49 0c346.11 0 626.79 280.54 626.79 626.79l0 6897.75c0 346.11-280.68 626.79-626.79 626.79z"></path><polygon fill="#fefefe" fill-rule="nonzero" points="2020.44 12165.3 13060.77 12165.3 13060.77 5178.39 2020.44 5178.39"></polygon><path fill="#2c2a43" fill-rule="nonzero" d="M3740.73 4628.15c-12.11 0-24.36-3.65-35.13-11.12-27.83-19.51-34.59-57.71-15.22-85.58 0 0 38.84-55.7 110.93-149.88 20.61-26.98 59.45-32.12 86.19-11.51 26.98 20.61 32.11 59.34 11.47 86.22-69.58 90.79-107.29 144.89-107.78 145.49-12 17.14-30.98 26.38-50.46 26.38zM6466.65 2448.19c-27.58 0-52.58-18.62-59.56-46.59-8.14-33.11 11.97-66.32 44.97-74.43 128.28-31.72 256.07-51.73 379.96-59.48 33.6-3.47 62.95 23.61 65.08 57.36 2.13 33.96-23.48 63.06-57.47 65.19-116.42 7.36-237.06 26.34-358.11 56.22l-14.87 1.74zm1100.87 55.09l-23.48-4.74c-102.43-42.59-211.1-73.22-322.92-90.96l-21.25-3.36c-33.57-4.85-56.69-36.22-51.83-69.82 5.13-33.46 36.61-56.83 69.96-51.7l22.73 3.47c121.02 19.37 239.07 52.62 350.36 98.83 31.37 13.1 46.24 48.97 33.25 80.3-9.88 23.62-32.72 37.99-56.83 37.99zm-1793.24 222.96c-21.74 0-42.84-11.51-53.96-31.97-16.36-29.74-5.49-67.1 24.36-83.46 115.29-63.06 230.82-118.41 343.74-164.37 31.37-12.89 67.35 2.13 80.09 33.71 12.85 31.48-2.26 67.2-33.6 80.06-108.7 44.37-220.09 97.58-331.28 158.41l-29.35 7.61zm2394.82 209.83c-16.5 0-32.86-6.59-44.97-19.47-86.57-92.95-177.15-174.24-269.07-241.59-27.48-20.11-33.35-58.7-13.38-85.93 20.11-27.58 58.6-33.35 85.93-13.24 98.19 71.84 194.64 158.42 286.45 256.96 23.22 24.85 21.7 63.7-3.15 86.82-11.72 10.98-26.84 16.46-41.81 16.46zm-3017 205.61c-18.24 0-36.22-8-48.33-23.48-21-26.59-16.25-65.33 10.37-86.32 102.54-80.31 205.58-155.37 306.14-222.96 28.11-19.12 66.32-11.47 85.33 16.75 18.83 28.11 11.37 66.32-16.75 85.3-98.19 65.86-198.74 139.05-298.77 217.72-11.26 8.75-24.61 13-37.99 13zm3458.54 397.35c-20.71 0-40.97-10.62-52.58-29.74-70.32-115.89-136.64-216.94-202.75-308.76-19.83-27.48-13.59-65.83 14.02-85.69 27.58-20 66.07-13.63 85.69 13.84 68.06 94.57 136.25 198.25 208.2 317.04 17.49 28.96 8.25 66.81-20.72 84.45l-31.87 8.85zm3801.57 97.2c-14.02 0-27.87-4.64-39.48-14.23-25.99-21.74-29.5-60.59-7.76-86.57 93.94-112.67 177.25-204.98 254.69-282.31 24.01-23.72 62.96-23.87 87.07.14 23.86 24.08 23.86 62.96-.11 87.03-74.85 74.46-155.8 164.01-247.33 273.81-12.15 14.62-29.63 22.13-47.09 22.13zm-7820.2 2.23c-15.76 0-31.62-6.13-43.63-18.09-23.83-24.26-23.58-63.1.5-86.96 90.82-89.94 183.52-176.87 275.33-258.55 25.35-22.38 64.19-20.36 86.78 5.1 22.48 25.39 20.25 64.23-5.1 86.82-90.19 80.2-181.36 165.64-270.69 253.94-12 11.86-27.58 17.74-43.2 17.74zm-507.54 550.48c-13.98 0-28.11-4.74-39.59-14.37-25.99-22.09-29.25-60.83-7.36-86.68 81.05-96.31 165-191.49 249.45-283.05 22.98-25.11 61.82-26.35 86.82-3.51 24.96 23.02 26.45 61.86 3.47 86.82-83.17 90.32-165.89 184.01-245.8 278.94-12.15 14.34-29.5 21.85-46.99 21.85zm4892.53 3.61c-21.74 0-42.7-11.47-53.96-32.08l-60.69-111.43c-39.23-72.2-78.71-144.64-118.69-216.98-16.46-29.6-5.59-67.06 24.01-83.42 29.7-16.25 66.96-5.88 83.56 23.97 40.22 72.44 79.67 145.28 119.04 217.72l60.58 111.29c16.36 29.85 5.35 67.2-24.5 83.31l-29.35 7.61zm2973.27 33.74c-13.14 0-26.24-4.15-37.46-12.75-26.87-20.61-31.87-59.2-11.26-86.19l72.83-95.07c52.19-68.44 104.03-136.15 155.37-202.22 20.85-26.98 59.48-31.62 86.18-11.01 26.87 20.75 31.76 59.34 11.01 86.07-51.09 66.07-102.79 133.67-154.91 201.86l-73.05 95.32c-12.11 15.61-30.38 23.97-48.72 23.97zm-469.44 584.09c-14.34 0-28.72-4.99-40.47-15.12-25.46-22.38-28.08-61.22-5.84-86.68 73.58-84.2 151.26-177.75 237.44-286.17 21.1-26.73 60.09-30.87 86.43-9.88 26.48 21.1 30.98 59.84 9.88 86.43-87.56 109.8-166.28 204.87-241.09 290.42-12.21 13.99-29.21 21-46.35 21zm-2118.99 24.36c-19.37 0-38.2-9.13-50.21-26.13-64.69-92.06-131.4-196.73-203.85-319.88-17.24-29.24-7.5-66.96 21.74-84.2 28.96-17.1 66.81-7.61 84.06 21.74 70.82 120.42 135.76 222.32 198.61 311.76 19.47 27.72 12.85 66.07-14.98 85.58-10.76 7.47-23.12 11.12-35.37 11.12zm1574.87 487.39c-19.48 0-38.7-9.24-50.7-26.48-19.12-27.97-12.11-66.21 15.76-85.55 88.17-60.72 182.24-139.15 279.65-232.98 24.36-23.58 63.34-23.09 86.82 1.63 23.62 24.26 22.87 63.2-1.63 86.71-103.53 99.92-200.09 180.37-295.02 245.94-10.62 7.22-22.73 10.73-34.87 10.73zm-1050.24 37.21l-31.62-8.6c-104.52-62.57-203.21-142.52-301.64-244.7-23.48-24.36-22.87-63.35 1.63-86.93 24.46-23.23 63.31-22.98 86.93 1.73 90.68 94.08 181.11 167.52 276.29 224.2 29 17.63 38.63 55.34 21.25 84.45-11.47 19.26-31.98 29.85-52.83 29.85zm542.24 148.89c-70.81 0-140.53-6.09-207.35-18.34-33.35-6.23-55.45-38.35-49.36-71.7 6.27-33.35 37.6-54.85 71.7-49.36 107.32 19.86 222.61 27.12 342.89-4.85 33.35-9 66.32 10.73 75.06 43.73 8.75 32.72-10.73 66.32-43.59 75.06-63.94 17-127.65 25.46-189.36 25.46z"></path><polygon fill="#268ccb" fill-rule="nonzero" points="14915.16 1952.41 12825.77 3242.89 12921.19 2488.81"></polygon><polygon fill="#2c2a43" fill-rule="nonzero" points="14915.16 1952.41 12825.77 3242.89 13088.21 2705.75"></polygon><polygon fill="#e5e6e5" fill-rule="nonzero" points="13692.52 3496.34 12391.84 1903.69 15206.07 1607.04 15206.07 1609.63"></polygon><polygon fill="#268ccb" fill-rule="nonzero" points="15120.03 1655.37 12910.96 2539.51 13070.86 2735.24"></polygon><path fill="#268ccb" fill-rule="nonzero" d="M11667.33 12155.56l0 -5420.03c0,-222.08 -180.12,-402.23 -402.06,-402.23l-414.24 0c-686.24,0 -592.3,1545.91 -592.3,1545.91l0 4276.36 1408.6 0z"></path><path fill="#e5e6e5" fill-rule="nonzero" d="M11060.54 6333.29l-7050.14 0c-686.13,0 -592.34,1545.91 -592.34,1545.91l0 4276.36 7050.14 0 0 -4276.36c0,0 -93.94,-1545.91 592.34,-1545.91z"></path><polygon fill="#fefefe" fill-rule="nonzero" points="4255.1 9685.04 9899.09 9685.04 9899.09 8753.21 4255.1 8753.21"></polygon><polygon fill="#268ccb" fill-rule="nonzero" points="4424.85 9559.88 5366.35 9559.88 5366.35 8878.45 4424.85 8878.45"></polygon><polygon fill="#268ccb" fill-rule="nonzero" points="5515.59 9559.88 6457.05 9559.88 6457.05 8878.45 5515.59 8878.45"></polygon><polygon fill="#268ccb" fill-rule="nonzero" points="6606.44 9559.88 7547.9 9559.88 7547.9 8878.45 6606.44 8878.45"></polygon><polygon fill="#e5e6e5" fill-rule="nonzero" points="7697.18 9559.88 8638.64 9559.88 8638.64 8878.45 7697.18 8878.45"></polygon><polygon fill="#e5e6e5" fill-rule="nonzero" points="8787.88 9559.88 9729.34 9559.88 9729.34 8878.45 8787.88 8878.45"></polygon><polygon fill="#f1666e" fill-rule="nonzero" points="4467.83 11707.62 5443 11707.62 5443 11310.34 4467.83 11310.34"></polygon><polygon fill="#f1666e" fill-rule="nonzero" points="5882.31 11707.62 6857.51 11707.62 6857.51 11310.34 5882.31 11310.34"></polygon><polygon fill="#f1666e" fill-rule="nonzero" points="7296.71 11707.62 8271.88 11707.62 8271.88 11310.34 7296.71 11310.34"></polygon><polygon fill="#f1666e" fill-rule="nonzero" points="8711.19 11707.62 9686.4 11707.62 9686.4 11310.34 8711.19 11310.34"></polygon><polygon fill="#b0ddd3" fill-rule="nonzero" points="4207.02 8086.31 9947.17 8086.31 9947.17 7094.28 4207.02 7094.28"></polygon><path fill="#222124" fill-rule="nonzero" d="M7552.01 7879.95l0 119.18-103.67 0 0-119.93c-73.33-10.13-144.15-40.47-196.34-83.42l55.31-111.57c56.09 48.47 141.03 82.71 198 82.71 42.1 0 68.59-15.61 68.59-44.37 0-92.8-287.69-36.72-287.69-230.08 0-86.43 62.46-146.38 162.13-162.74l0-114.69 103.67 0 0 113.8c63.98 6.98 124.81 28.86 170.77 58.46l-53.85 113.02c-57.72-32.72-130.91-58.46-176.12-58.46-34.35 0-56.97 12.5-56.97 37.5 0 90.43 287.69 38.84 287.69 235.32 0 95.92-73.33 151.9-171.52 165.25zM7983.59 7529.2c128.64 0 212.09 67.84 212.09 165.28 0 115.29-88.06 190.11-222.96 190.11-73.33 0-157.39-27.12-216.73-68.59l56.97-110.65c42.84 45.22 92.8 68.69 142.66 68.69 55.31 0 86.54-25 86.54-69.47 0-41.32-31.23-64.55-85.8-64.55-28.86 0-118.55.74-152.78 2.98l0-311.77 367.11 0 0 115.43-236.2 0 0 83.42c11.76-.89 38.24-.89 49.11-.89zM8668.6 7706.2c0 105.2-86.57 178.39-222.22 178.39-79.42 0-162.13-26.48-215.1-66.96l57.71-109.91c42.84 44.44 94.33 67.7 146.52 67.7 60.09 0 93.58-24.86 93.58-67.7 0-43.62-33.5-66.21-94.33-66.21l-92.06 0 0-76.44 127.93-122.41-210.5 0-.85-109.8 382.09 0 0 82.57-147.41 137.13 27.23 4c86.57 13.24 147.41 66.21 147.41 149.63zM8871.84 7480.86c0 37.35 25.74 58.6 72.44 58.6 47.59 0 73.44-21.24 73.44-58.6 0-38.98-25.85-59.94-73.44-59.94-46.7 0-72.44 20.96-72.44 59.94zm-13.24 230.72c0 44.47 30.35 68.69 85.69 68.69 56.19 0 87.42-24.22 87.42-68.69 0-43.73-31.23-67.84-86.54-67.84-56.23 0-86.57 24.11-86.57 67.84zm278.31-238.47c0 46-25 88.84-65.47 112.17 56.97 25.74 93.55 77.97 93.55 138.8 0 98.19-86.43 160.5-220.7 160.5-133.28 0-218.96-61.47-218.96-158.27 0-61.43 38.95-115.29 99.78-141.03-44.44-25.7-72.55-70.07-72.55-116.14 0-88.09 75.56-144.04 190.99-144.04 118.55 0 193.36 57.57 193.36 148zM9425.79 7529.2c128.67 0 212.13 67.84 212.13 165.28 0 115.29-88.2 190.11-223.11 190.11-73.19 0-157.39-27.12-216.73-68.59l57.11-110.65c42.7 45.22 92.56 68.69 142.52 68.69 55.45 0 86.54-25 86.54-69.47 0-41.32-31.09-64.55-85.8-64.55-28.72 0-118.41.74-152.64 2.98l0-311.77 367.11 0 0 115.43-236.2 0 0 83.42c11.76-.89 38.1-.89 49.07-.89z"></path><polygon fill="#ffce72" fill-rule="nonzero" points="7547.9 10937.17 9899.09 10937.17 9899.09 9983.71 7547.9 9983.71"></polygon><path fill="#222124" fill-rule="nonzero" d="M8075.27 10549.32c0 39.73 25 74.81 80.2 74.81 48.47 0 78.07-27.33 78.07-77.19 0-45.96-28.11-74.07-76.44-74.07-52.23 0-81.83 31.97-81.83 76.44zm109.94-263.58c-84.94 0-126.3 54.6-124.81 143.4 25.74-36.47 67.84-58.46 127.19-58.46 105.91 0 174.49 70.21 174.49 177 0 115.43-81.08 188.62-201.12 188.62-144.89 0-232.2-103.53-232.2-271.19 0-174.63 97.3-287.65 247.82-287.65 60.83 0 128.67 17.1 173.75 45.22l-52.09 98.19c-31.23-22.63-70.96-35.13-113.02-35.13zM8542.68 10456.51c0 124.78 22.63 177.01 77.93 177.01 54.6 0 77.22-52.23 77.22-177.01 0-125.56-22.63-177-77.22-177-55.31 0-77.93 51.45-77.93 177zm291.55 0c0 178.49-76.44 277.56-213.62 277.56-138.76 0-214.32-99.07-214.32-277.56 0-178.63 75.56-276.82 214.32-276.82 137.17 0 213.62 98.19 213.62 276.82zM9420.2 10567.16c0 56.22 24.22 90.46 64.69 90.46 40.61 0 64.72-34.24 64.72-90.46 0-56.19-24.11-89.65-64.72-89.65-40.47 0-64.69 33.46-64.69 89.65zm217.58 0c0 102.08-59.34 166.13-152.89 166.13-93.55 0-152.75-64.06-152.75-166.13 0-101.3 59.2-165.25 152.75-165.25 93.55 0 152.89 63.95 152.89 165.25zm-118.55-383.47l-388.96 546.38-130.3 0 388.99-546.38 130.26 0zm-546.48 162.87c0 56.09 24.25 90.47 64.72 90.47 40.58 0 64.69-34.38 64.69-90.47 0-56.09-24.11-89.69-64.69-89.69-40.47 0-64.72 33.6-64.72 89.69zm217.48 0c0 102.19-59.2 166.03-152.75 166.03-93.58 0-152.78-63.84-152.78-166.03 0-101.3 59.2-165.25 152.78-165.25 93.55 0 152.75 63.95 152.75 165.25z"></path></svg>